<svg width="13" height="8" viewBox="0 0 13 8" fill="none" xmlns="http://www.w3.org/2000/svg">
<path d="M5.06046 7.17373L4.0145 6.89315L4.44079 5.30119C3.80269 5.06585 3.20965 4.72289 2.68742 4.28719L1.52121 5.45394L0.754749 4.68748L1.9215 3.52127C1.26287 2.73248 0.820338 1.78619 0.637207 0.775025L1.70321 0.580566C2.11433 2.85665 4.1055 4.58348 6.50021 4.58348C8.89437 4.58348 10.8861 2.85665 11.2972 0.580566L12.3632 0.774483C12.1803 1.78578 11.738 2.73227 11.0795 3.52127L12.2457 4.68748L11.4792 5.45394L10.313 4.28719C9.79077 4.72289 9.19772 5.06585 8.55962 5.30119L8.98592 6.89369L7.93996 7.17373L7.51312 5.58123C6.84273 5.69611 6.15768 5.69611 5.48729 5.58123L5.06046 7.17373Z" fill="black"/>
</svg>
